<svg width="50" height="50" viewBox="0 0 50 50" fill="none" xmlns="http://www.w3.org/2000/svg">
<circle cx="25" cy="25" r="25" fill="#443FDE"/>
<path d="M19.4662 15.2624C19.0262 15.5408 18.6598 15.9153 18.3965 16.3558C18.1332 16.7963 17.9803 17.2905 17.9502 17.7987V20.687C17.9803 21.1952 18.1332 21.6894 18.3965 22.1299C18.6598 22.5704 19.0262 22.9449 19.4662 23.2233L22.6028 25.0136C23.4348 25.4791 24.1188 25.0972 24.1188 24.1662V14.3791C24.1188 13.4482 23.4348 13.0663 22.6028 13.5318L19.4662 15.2624Z" fill="white"/>
<path d="M19.1394 23.8492C18.684 23.6296 18.1808 23.5151 17.6704 23.5151C17.16 23.5151 16.6568 23.6296 16.2014 23.8492L13.6942 25.2189C13.267 25.4851 12.9113 25.8433 12.6556 26.2645C12.3999 26.6858 12.2515 27.1583 12.2222 27.6442V30.9998C12.2222 31.8901 12.8865 32.2553 13.6942 31.8102L22.1911 27.1307C22.9989 26.6855 22.9989 25.9608 22.1911 25.5156L19.1394 23.8492Z" fill="white"/>
<path d="M30.5339 15.2624C30.9739 15.5408 31.3402 15.9153 31.6035 16.3558C31.8668 16.7963 32.0197 17.2905 32.0498 17.7987V20.687C32.0197 21.1952 31.8668 21.6894 31.6035 22.1299C31.3402 22.5704 30.9739 22.9449 30.5339 23.2233L27.391 25.0136C26.5591 25.4791 25.8812 25.0972 25.8812 24.1662V14.3791C25.8812 13.4482 26.5591 13.0663 27.391 13.5318L30.5339 15.2624Z" fill="white"/>
<path d="M30.5746 23.8492C31.0493 23.6296 31.5738 23.5151 32.1057 23.5151C32.6376 23.5151 33.1621 23.6296 33.6368 23.8492L36.2499 25.2189C36.6944 25.4854 37.0642 25.8438 37.3296 26.265C37.595 26.6863 37.7485 27.1587 37.7778 27.6442V30.9998C37.7778 31.8901 37.0918 32.2553 36.2499 31.8102L27.394 27.1307C26.552 26.6855 26.552 25.9608 27.394 25.5156L30.5746 23.8492Z" fill="white"/>
<path d="M17.6444 36.3331C18.1001 36.5524 18.6036 36.6667 19.1142 36.6667C19.6249 36.6667 20.1283 36.5524 20.584 36.3331L23.0927 34.9596C23.5195 34.6922 23.8745 34.3333 24.1292 33.9117C24.384 33.49 24.5313 33.0174 24.5595 32.5318V29.1807C24.5595 28.2916 23.9009 27.9269 23.0927 28.3714L14.5909 33.0447C13.7827 33.4892 13.7827 34.213 14.5909 34.6575L17.6444 36.3331Z" fill="white"/>
<path d="M25 32.5345C25.0298 33.019 25.1836 33.4903 25.4489 33.9106C25.7143 34.331 26.0838 34.6887 26.528 34.955L29.1411 36.3333C29.6158 36.5525 30.1402 36.6667 30.6722 36.6667C31.2041 36.6667 31.7286 36.5525 32.2032 36.3333L35.3839 34.6532C36.2258 34.209 36.2258 33.4856 35.3839 33.0414L26.528 28.3713C25.686 27.927 25 28.2915 25 29.18V32.5345Z" fill="white"/>
</svg>
